<svg width="78" height="88" viewBox="0 0 78 88" fill="none" xmlns="http://www.w3.org/2000/svg">
<g clip-path="url(#clip0_1_997)">
<path d="M6.8846 82.0576C6.16125 82.0576 5.52861 82.0737 4.8983 82.0552C2.20261 81.9766 0.209329 80.049 0.0325623 77.3602C0.0139553 77.071 0.0116294 76.7817 0.0116294 76.4925C0.00930351 52.86 0.0162811 29.2275 0 5.59266C0 3.88727 0.386096 2.38782 1.7165 1.23547C2.70267 0.381616 3.8563 0.0229516 5.16112 0.0322075C8.46852 0.0530331 11.7759 0.0391494 15.0833 0.0391494C28.5176 0.0391494 41.9519 0.0923705 55.3838 0.00212596C58.7679 -0.0210137 61.138 2.28138 61.0287 5.67133C60.9171 9.08212 61.024 12.4975 60.9868 15.9106C60.9799 16.6048 61.1683 17.0954 61.666 17.579C63.4755 19.333 65.2246 21.1494 67.0411 22.8965C67.6295 23.4634 67.8714 24.0535 67.8714 24.8749C67.8482 37.8632 67.8621 50.8515 67.8412 63.8374C67.8412 64.5223 67.99 64.8208 68.7134 65.0037C74.463 66.4614 78.1634 72.0103 77.3796 77.9109C76.6214 83.6102 71.5928 87.9489 65.7432 87.9512C52.9486 87.9558 40.1539 87.9605 27.3616 87.9651C22.1982 87.9651 17.0301 87.8749 11.869 87.9975C8.66622 88.0739 6.6334 85.7391 6.88227 82.9947C6.90786 82.717 6.8846 82.4347 6.8846 82.0576ZM48.4969 8.07323C48.1945 8.05703 47.9968 8.0362 47.7991 8.0362C35.7278 8.0362 23.6588 8.03158 11.5875 8.03852C9.82683 8.03852 8.98486 8.93865 8.98486 10.7667C8.98486 34.8921 8.98486 59.0174 8.98486 83.1428C8.98486 85.0032 9.83381 85.8663 11.6782 85.8663C27.1151 85.871 42.5496 85.8686 57.9865 85.8663C58.226 85.8663 58.4679 85.8293 58.8121 85.8015C54.6907 82.363 52.9765 78.1261 54.479 73.0562C56.0909 67.6161 60.0914 64.9296 65.6944 64.4969V25.2382C65.3223 25.2382 65.006 25.2382 64.692 25.2382C60.8333 25.2382 56.9747 25.2475 53.1137 25.2336C51.0484 25.2266 49.4109 24.1506 48.7923 22.3481C48.5899 21.7603 48.5132 21.1055 48.5108 20.4807C48.4876 16.3757 48.4992 12.2731 48.4992 8.07323H48.4969ZM50.5948 9.71845V10.415C50.5948 13.7401 50.5925 17.063 50.5948 20.3881C50.5971 22.2624 51.4763 23.1325 53.3766 23.1348C56.7119 23.1394 60.0448 23.1348 63.3802 23.1348H63.9942C59.5262 18.6619 55.0977 14.2261 50.5948 9.71614V9.71845ZM63.8895 78.9337C63.2104 78.2279 62.6126 77.5985 62.0079 76.9761C61.5102 76.4647 60.924 76.3374 60.4054 76.865C59.8913 77.3903 60.0309 77.9688 60.5333 78.4686C61.3334 79.2646 62.1265 80.0676 62.9336 80.8589C63.6825 81.5948 64.1756 81.5948 64.9245 80.852C66.3457 79.4474 67.7551 78.0313 69.1693 76.6221C69.7833 76.0089 70.4066 75.4026 71.0067 74.7755C71.451 74.3127 71.5021 73.7736 71.0556 73.3038C70.5741 72.7971 70.0252 72.8596 69.5182 73.3154C69.3251 73.489 69.146 73.6787 68.9599 73.8638C67.3016 75.5183 65.6432 77.1751 63.8849 78.9337H63.8895Z" fill="#004F95"/>
<path d="M37.349 46.3877C30.0387 46.3877 22.7262 46.3877 15.4159 46.3877C15.2136 46.3877 15.0089 46.3901 14.8066 46.3877C13.8134 46.3716 13.318 46.0129 13.3203 45.3187C13.3203 44.6176 13.7925 44.2751 14.8182 44.2751C29.8457 44.2728 44.8732 44.2751 59.9007 44.2751C60.1309 44.2751 60.4356 44.2149 60.5798 44.3329C60.9031 44.5991 61.3543 44.9531 61.366 45.284C61.3776 45.6195 60.9799 46.0545 60.6473 46.2836C60.4031 46.4525 59.9751 46.3831 59.6309 46.3831C52.2043 46.3877 44.7778 46.3854 37.3513 46.3854L37.349 46.3877Z" fill="#004F95"/>
<path d="M37.349 51.8001C44.8057 51.8001 52.2625 51.8001 59.7192 51.8001C59.9797 51.8001 60.3147 51.7052 60.4868 51.8302C60.845 52.0894 61.345 52.4573 61.359 52.7951C61.3729 53.1422 60.9054 53.5425 60.5775 53.8457C60.4496 53.9637 60.1309 53.8896 59.9007 53.8896C44.9011 53.8896 29.9015 53.8896 14.8996 53.8896C14.6391 53.8896 14.2856 53.9706 14.139 53.8364C13.8134 53.5379 13.3948 53.1283 13.3854 52.7558C13.3785 52.4503 13.8669 52.0685 14.2135 51.8418C14.4181 51.7076 14.7787 51.8024 15.0671 51.8024C22.4936 51.8024 29.9224 51.8024 37.349 51.8024V51.8001Z" fill="#004F95"/>
<path d="M37.442 61.3922C30.0154 61.3922 22.5866 61.3922 15.1601 61.3922C14.8693 61.3922 14.5158 61.4894 14.3041 61.3575C13.932 61.1261 13.4761 60.8044 13.3622 60.4296C13.19 59.8557 13.6227 59.46 14.2018 59.3304C14.4507 59.2749 14.7205 59.2934 14.981 59.2934C29.9224 59.2934 44.8638 59.2934 59.8053 59.2934C60.0658 59.2934 60.4123 59.2147 60.5682 59.349C60.9054 59.6382 61.3683 60.0455 61.3566 60.3926C61.3473 60.7281 60.8496 61.1099 60.4868 61.3552C60.2867 61.4917 59.9216 61.3922 59.6332 61.3922C52.2345 61.3922 44.8359 61.3922 37.4373 61.3922H37.442Z" fill="#004F95"/>
<path d="M26.8965 66.8185C30.8086 66.8185 34.7207 66.8185 38.6328 66.8185C38.8933 66.8185 39.1562 66.8138 39.4143 66.8393C40.0167 66.8971 40.4028 67.2442 40.4214 67.8366C40.44 68.4776 40.0377 68.8385 39.4074 68.9195C39.1794 68.9496 38.9445 68.9404 38.7142 68.9404C30.8319 68.9404 22.9495 68.9404 15.0671 68.9404C15.0089 68.9404 14.9508 68.9404 14.8926 68.9404C13.8227 68.9288 13.318 68.584 13.3203 67.869C13.3203 67.1563 13.8181 66.8185 14.9019 66.8185C18.9001 66.8138 22.9006 66.8185 26.8988 66.8185H26.8965Z" fill="#004F95"/>
<path d="M16.123 34.7068C16.123 35.6486 16.1137 36.5927 16.1254 37.5345C16.1323 38.1708 15.9346 38.6429 15.2113 38.6313C14.5368 38.6197 14.3577 38.1569 14.3577 37.5646C14.3647 35.7134 14.3716 33.8622 14.353 32.011C14.3461 31.3007 14.6205 30.8194 15.3299 30.6921C16.0393 30.5648 16.5696 30.8309 16.851 31.5344C17.4278 32.9806 18.0209 34.4222 18.6722 36.0327C18.9513 35.3825 19.1792 34.8711 19.3909 34.3528C19.7979 33.3647 20.1794 32.3651 20.6003 31.384C20.8701 30.7592 21.4121 30.581 22.0424 30.6921C22.6634 30.8008 23.0239 31.2012 23.0286 31.8329C23.0425 33.7697 23.0425 35.7088 23.0286 37.6455C23.0239 38.194 22.7913 38.6197 22.168 38.6336C21.4912 38.6498 21.2632 38.2125 21.2586 37.6178C21.2493 36.6667 21.2562 35.718 21.0725 34.7091C20.6701 35.6926 20.3003 36.6922 19.8468 37.6525C19.6746 38.0158 19.3676 38.4369 19.0211 38.5688C18.3 38.8419 17.8139 38.423 17.5418 37.745C17.1278 36.7153 16.7115 35.6902 16.2951 34.6605C16.237 34.6744 16.1788 34.6906 16.1207 34.7045L16.123 34.7068Z" fill="#004F95"/>
<path d="M36.9465 35.2972C36.9465 34.1795 36.9558 33.0619 36.9419 31.9442C36.9349 31.3125 37.0349 30.7086 37.8024 30.6993C38.5444 30.6901 38.7281 31.2477 38.7258 31.9026C38.7165 33.6936 38.7188 35.4869 38.7258 37.2779C38.7258 37.8726 38.5886 38.3979 37.9629 38.5899C37.2954 38.7959 36.8023 38.5228 36.4139 37.9467C35.5184 36.6185 34.5904 35.3111 33.4809 34.0476C33.4809 35.0426 33.4809 36.0376 33.4809 37.0326C33.4809 37.3219 33.567 37.6829 33.4298 37.8819C33.2135 38.1919 32.8506 38.5576 32.5227 38.583C32.2738 38.6038 31.7575 38.141 31.7505 37.8819C31.6854 35.8039 31.6761 33.7214 31.7551 31.6457C31.7668 31.3172 32.2738 30.7919 32.6041 30.7479C32.9972 30.6947 33.5926 30.9446 33.8484 31.2639C34.7113 32.3469 35.4603 33.5201 36.2557 34.6585C36.4185 34.8899 36.5837 35.1213 36.7488 35.3504C36.8163 35.3319 36.8837 35.3134 36.9512 35.2949L36.9465 35.2972Z" fill="#004F95"/>
<path d="M50.539 30.4609C50.9321 30.8196 51.3833 31.051 51.5462 31.412C52.437 33.3858 53.2906 35.3804 54.0697 37.4005C54.186 37.7013 53.9627 38.3469 53.6906 38.5344C53.2394 38.8467 52.7603 38.6015 52.4858 38.0739C52.2649 37.6527 52.0695 36.9632 51.7555 36.8984C50.9507 36.7318 50.0855 36.8267 49.2459 36.866C49.1156 36.8729 48.9691 37.1252 48.8807 37.2918C48.7179 37.5972 48.6714 38.0276 48.4295 38.2104C48.1318 38.4325 47.6317 38.6084 47.3154 38.5089C47.0898 38.4372 46.8176 37.7939 46.9153 37.544C47.7503 35.4221 48.6481 33.3233 49.5808 31.2384C49.7087 30.9492 50.1227 30.7872 50.539 30.4609ZM51.1996 35.0912C50.974 34.5243 50.7763 34.0291 50.5204 33.3835C50.2553 34.036 50.0553 34.5266 49.825 35.0912H51.1996Z" fill="#004F95"/>
<path d="M27.3965 30.4492C27.7965 30.8287 28.2384 31.0694 28.4036 31.4327C29.2828 33.381 30.0898 35.3618 30.9295 37.3286C31.1597 37.8678 31.0714 38.3352 30.5318 38.5689C30.0108 38.7934 29.5875 38.5805 29.3176 38.0529C29.1037 37.6341 28.8897 36.9607 28.5757 36.8959C27.7686 36.7339 26.9034 36.8288 26.0661 36.8728C25.9405 36.8797 25.8056 37.1481 25.7149 37.3171C25.5683 37.5971 25.5311 37.9951 25.3102 38.164C25.0078 38.3931 24.5031 38.6406 24.2217 38.5296C23.9658 38.4301 23.6681 37.7799 23.7704 37.5207C24.5868 35.4219 25.4753 33.3486 26.3963 31.2938C26.5359 30.9814 26.9685 30.8009 27.3988 30.4515L27.3965 30.4492ZM28.064 35.1003C27.8291 34.5357 27.6198 34.0382 27.3523 33.3995C27.0848 34.0544 26.8848 34.5426 26.6568 35.1003H28.064Z" fill="#004F95"/>
<path d="M46.4175 33.8135C46.4175 34.4498 46.4385 35.0862 46.4129 35.7225C46.3431 37.4742 44.9802 38.7052 43.1194 38.7168C41.275 38.7283 39.8516 37.4857 39.7958 35.7526C39.7539 34.4244 39.7911 33.0915 39.7772 31.761C39.7702 31.1478 40.0121 30.7035 40.647 30.6966C41.2774 30.6919 41.5448 31.1223 41.5425 31.7402C41.5355 32.955 41.5309 34.1698 41.5425 35.3847C41.5541 36.4445 42.1472 37.0484 43.1311 37.0299C44.0824 37.0137 44.6475 36.4306 44.6592 35.4147C44.6731 34.23 44.6755 33.0429 44.6592 31.8559C44.6499 31.2265 44.8359 30.7105 45.5267 30.6966C46.2129 30.6827 46.4455 31.1733 46.4292 31.8165C46.4129 32.4806 46.4245 33.1471 46.4245 33.8135C46.4222 33.8135 46.4199 33.8135 46.4175 33.8135Z" fill="#004F95"/>
<path d="M56.6351 36.8639C57.6073 36.8639 58.4446 36.8708 59.2796 36.8639C59.875 36.857 60.3402 37.0398 60.3565 37.7108C60.3728 38.4305 59.889 38.6295 59.2564 38.6248C58.212 38.6179 57.1677 38.6341 56.1234 38.6202C55.2349 38.6063 54.8581 38.2477 54.8465 37.3429C54.8256 35.4917 54.8395 33.6406 54.8395 31.7894C54.8395 31.1993 55.0512 30.7134 55.6978 30.6995C56.3862 30.6856 56.6328 31.1762 56.6328 31.8056C56.6328 33.4508 56.6328 35.096 56.6328 36.8662L56.6351 36.8639Z" fill="#004F95"/>
</g>
<defs>
<clipPath id="clip0_1_997">
<rect width="77.4843" height="88" fill="white"/>
</clipPath>
</defs>
</svg>
