<svg width="166" height="180" viewBox="0 0 166 180" fill="none" xmlns="http://www.w3.org/2000/svg">
<path d="M43.7347 75.7372C43.8753 75.7269 44.4136 75.6653 44.9553 75.6653C49.9854 75.6585 55.0121 75.6995 60.0421 75.6346C61.2868 75.6175 62.1577 75.9834 63.0389 76.8656C69.4817 83.3356 75.9759 89.7508 82.4597 96.1832C82.7375 96.4567 83.0392 96.7098 83.4781 97.103C100.732 76.2809 117.927 55.5271 135.305 34.5545C132.767 33.9629 130.463 33.4568 128.176 32.8823C112.99 29.0728 98.4655 23.5022 84.5376 16.3894C83.4473 15.832 82.6278 15.8525 81.5443 16.3997C64.1259 25.195 45.9634 31.8701 26.6695 35.2247C22.572 35.936 18.43 36.3874 14.1474 36.979C14.1474 39.4206 14.0617 41.9101 14.1611 44.3962C15.6115 81.4787 29.1382 113.514 54.628 140.532C62.8435 149.239 71.9744 156.885 81.7808 163.748C82.6243 164.336 83.2209 164.535 84.1776 163.868C108.124 147.095 127.189 126.177 139.33 99.3703C145.324 86.1329 149.068 72.2696 150.909 57.8764C150.998 57.1891 151.228 56.3718 151.688 55.9033C156.179 51.3552 160.733 46.872 165.273 42.3718C165.417 42.2282 165.598 42.129 165.986 41.8452C165.986 43.1002 166.02 44.1021 165.982 45.1006C164.964 71.7225 158.089 96.6756 144.6 119.751C131.262 142.567 113.127 160.859 91.4741 175.837C90.2534 176.681 88.9848 177.461 87.7881 178.333C84.5959 180.665 81.4928 180.45 78.2697 178.313C66.8175 170.707 56.1367 162.168 46.5155 152.344C27.0158 132.428 13.1359 109.246 5.74682 82.32C0.836757 64.4558 -0.76793 46.2599 0.329292 27.7973C0.600168 23.2492 0.548736 23.191 5.16392 23.1637C25.5345 23.0474 44.6502 17.5452 63.1418 9.5638C69.42 6.85545 75.4512 3.57602 81.5374 0.436796C82.7238 -0.175319 83.5124 -0.134283 84.637 0.498349C102.121 10.3606 120.633 17.4905 140.407 21.235C148.012 22.6747 155.692 23.2321 163.428 23.1808C163.987 23.1774 164.546 23.1808 165.362 23.1808C165.108 23.6117 165.026 23.8681 164.854 24.0289C147.81 40.1524 133.422 58.6561 117.955 76.1885C106.708 88.9404 95.6744 101.877 84.541 114.728C84.2119 115.107 83.8553 115.46 83.4335 115.904C70.1229 102.434 56.8773 89.0293 43.7381 75.7337L43.7347 75.7372Z" fill="#004F95"/>
</svg>
